<svg width="38" height="20" viewBox="0 0 38 20" fill="none" xmlns="http://www.w3.org/2000/svg">
<path d="M26.4672 10C26.4672 14.7355 22.9525 18.5 18.7049 18.5C14.4573 18.5 10.9426 14.7355 10.9426 10C10.9426 5.26447 14.4573 1.5 18.7049 1.5C22.9525 1.5 26.4672 5.26447 26.4672 10Z" stroke="#343452"/>
<path d="M13 8.76786C13.1967 7.48214 14.2984 4.78214 17.1311 4.26786" stroke="#343452"/>
<path d="M18.7049 1C9.26229 1 3.7 6.88214 1 9.82321C3.7 12.7643 9.26229 19 18.7049 19C28.1475 19 37 10 37 10C37 10 28.1475 1 18.7049 1Z" stroke="#343452"/>
</svg>
