<svg width="16" height="17" viewBox="0 0 16 17" fill="none" xmlns="http://www.w3.org/2000/svg">
<path d="M9.21094 8.66183C9.21094 10.8616 7.73438 12.4286 5.51451 12.4286C3.375 12.4286 1.65737 10.7009 1.65737 8.57143C1.65737 6.44196 3.375 4.71429 5.51451 4.71429C6.54911 4.71429 7.42299 5.09598 8.09598 5.71875L7.05134 6.73326C6.76004 6.45201 6.25781 6.14062 5.51451 6.14062C4.18862 6.14062 3.11384 7.22545 3.11384 8.57143C3.11384 9.91741 4.18862 11.0022 5.51451 11.0022C7.04129 11.0022 7.61384 9.90737 7.6942 9.34487H5.51451V8.01897H9.15067C9.1808 8.20982 9.21094 8.41071 9.21094 8.66183ZM12.6763 9.12388V10.2288H11.5714V9.12388H10.4665V8.01897H11.5714V6.91406H12.6763V8.01897H13.7712V9.12388H12.6763ZM15.4286 3.75C15.4286 2.1529 14.1328 0.857142 12.5357 0.857142H2.89286C1.29576 0.857142 0 2.1529 0 3.75V13.3929C0 14.99 1.29576 16.2857 2.89286 16.2857H12.5357C14.1328 16.2857 15.4286 14.99 15.4286 13.3929V3.75Z" fill="#222222" fill-opacity="0.2"/>
</svg>
