<svg width="207" height="206" viewBox="0 0 207 206" fill="none" xmlns="http://www.w3.org/2000/svg">
<path fill-rule="evenodd" clip-rule="evenodd" d="M0 167.5V36.5C0 9.7 25.3333 1 38 0H167C195.4 0 204.833 25 206 37.5C205.833 67.3333 205.6 134.7 206 165.5C206.4 196.3 180.5 205 167.5 205.5C136.167 205.667 66.3 205.9 37.5 205.5C8.7 205.1 0.5 180 0 167.5ZM94 78.5L108 65C103.167 59.3333 87.8 48.8 65 52C42.2 55.2 29.5 73.6667 26 82.5C24.5 85.6667 21.6 94.5 22 104.5C22.4 114.5 26.1667 123.667 28 127C30.3333 131.5 38.5 142.3 52.5 149.5C66.5 156.7 83.6667 154.167 90.5 152C97 149.667 111.5 141.7 117.5 128.5C123.5 115.3 123 101 122 95.5H73.5V113H102.5C101.167 120.333 93.5 135 73.5 135C53.5 135 44.5 118 42.5 109.5C40.1667 101.167 40.4 82.3 60 73.5C66.6667 70.5 82.8 67.3 94 78.5ZM154 95.5V80.5H169V95.5H184V110H169V125H154V110H139.5V95.5H154Z" fill="#DDDDDD"/>
</svg>
