<svg width="40" height="27" viewBox="0 0 40 27" fill="none" xmlns="http://www.w3.org/2000/svg">
<path d="M17.9315 26.0465C20.0133 22.8364 24.3811 21.237 31.0349 21.2484V15.765H40.0004L34.4832 10.2815V4.79801H31.7246V6.85432L27.5866 2.05627H24.1384L15.1729 11.6524H19.3108L26.2073 4.11258H25.5177L35.1729 14.3941H27.5866V19.8776C21.0984 19.9607 17.88 22.017 17.9315 26.0465Z" fill="#2CA4D4"/>
<path d="M24.8272 14.3941H21.3789V17.8213H24.8272V14.3941Z" fill="#0C3D50"/>
<path d="M14.4828 18.5067C15.3894 21.4157 14.4699 23.2435 11.7241 23.9902C9.06207 24.2973 7.45287 22.9264 6.89655 19.8776C2.33057 19.7177 0.0317241 17.4329 0 13.0233C0.0749425 8.35088 2.37379 5.83762 6.89655 5.48348C7.69057 1.90916 9.75954 0.0813382 13.1034 0C15.029 0.0594043 16.6382 0.973317 17.931 2.74174C18.8253 4.44299 18.8253 5.81386 17.931 6.85435C17.2874 3.62138 15.6782 2.02203 13.1034 2.0563C10.5287 2.09058 8.68966 3.46144 7.58621 6.16891C3.95402 6.77712 2.11494 8.83342 2.06897 12.3378C2.02299 15.8422 3.86207 17.8985 7.58621 18.5067C7.87494 21.2037 9.02437 22.5746 11.0345 22.6193C13.4814 22.6742 14.6308 21.3033 14.4828 18.5067Z" fill="#0C3D50"/>
</svg>
