<svg width="24" height="16" viewBox="0 0 24 16" fill="none" xmlns="http://www.w3.org/2000/svg">
<path d="M0.923077 9.6V1.10769H17.7231V9.41538L0.923077 9.6Z" stroke="#D0D0D3"/>
<circle cx="9.41539" cy="5.35385" r="2.03077" fill="#D0D0D3"/>
<path d="M16.2462 1.29231C16.2462 1.46202 16.2796 1.63006 16.3445 1.78685C16.4095 1.94364 16.5047 2.08611 16.6247 2.20611C16.7447 2.32611 16.8871 2.4213 17.0439 2.48624C17.2007 2.55119 17.3688 2.58462 17.5385 2.58462L17.5385 1.29231H16.2462Z" fill="#D0D0D3"/>
<path d="M17.5385 7.75385C17.3688 7.75385 17.2007 7.78727 17.0439 7.85222C16.8871 7.91716 16.7447 8.01235 16.6247 8.13236C16.5047 8.25236 16.4095 8.39482 16.3445 8.55161C16.2796 8.7084 16.2462 8.87645 16.2462 9.04616L17.5385 9.04616V7.75385Z" fill="#D0D0D3"/>
<path d="M2.58462 9.41539C2.58462 9.24568 2.55119 9.07763 2.48624 8.92084C2.4213 8.76405 2.32611 8.62159 2.20611 8.50159C2.08611 8.38158 1.94364 8.28639 1.78685 8.22145C1.63006 8.1565 1.46202 8.12308 1.29231 8.12308L1.29231 9.41539H2.58462Z" fill="#D0D0D3"/>
<path d="M1.29231 2.58462C1.46201 2.58462 1.63006 2.55119 1.78685 2.48624C1.94364 2.4213 2.0861 2.32611 2.20611 2.20611C2.32611 2.08611 2.4213 1.94364 2.48624 1.78685C2.55119 1.63006 2.58461 1.46202 2.58461 1.29231L1.29231 1.29231L1.29231 2.58462Z" fill="#D0D0D3"/>
<path d="M22.7077 12.9231C22.538 12.9231 22.3699 12.9565 22.2131 13.0214C22.0564 13.0864 21.9139 13.1816 21.7939 13.3016C21.6739 13.4216 21.5787 13.564 21.5138 13.7208C21.4488 13.8776 21.4154 14.0457 21.4154 14.2154L22.7077 14.2154V12.9231Z" fill="#D0D0D3"/>
<path d="M6 14.5C6 14.303 5.9612 14.108 5.88582 13.926C5.81044 13.744 5.69995 13.5786 5.56066 13.4393C5.42137 13.3001 5.25601 13.1896 5.07403 13.1142C4.89204 13.0388 4.69698 13 4.5 13L4.5 14.5H6Z" fill="#D0D0D3"/>
<path d="M21.4154 6.09231C21.4154 6.26202 21.4488 6.43006 21.5138 6.58685C21.5787 6.74364 21.6739 6.8861 21.7939 7.00611C21.9139 7.12611 22.0564 7.2213 22.2131 7.28624C22.3699 7.35119 22.538 7.38461 22.7077 7.38461L22.7077 6.09231H21.4154Z" fill="#D0D0D3"/>
<path d="M4.43077 11.4462V14.4H23.0769V5.72308H19.5692" stroke="#D0D0D3"/>
<mask id="mask0" mask-type="alpha" maskUnits="userSpaceOnUse" x="10" y="11" width="7" height="2">
<rect x="10.3385" y="11.4462" width="6.27692" height="1.47692" fill="#C4C4C4"/>
</mask>
<g mask="url(#mask0)">
<path d="M15.5077 10.5231C15.5077 10.7898 15.4552 11.0538 15.3531 11.3002C15.2511 11.5466 15.1015 11.7705 14.9129 11.959C14.7243 12.1476 14.5005 12.2972 14.2541 12.3993C14.0077 12.5013 13.7436 12.5538 13.4769 12.5538C13.2102 12.5538 12.9462 12.5013 12.6998 12.3993C12.4534 12.2972 12.2295 12.1476 12.041 11.959C11.8524 11.7705 11.7028 11.5466 11.6007 11.3002C11.4987 11.0538 11.4462 10.7898 11.4462 10.5231L13.4769 10.5231H15.5077Z" fill="#D0D0D3"/>
</g>
</svg>
