<svg width="16" height="17" viewBox="0 0 16 17" fill="none" xmlns="http://www.w3.org/2000/svg">
<path d="M9.31138 5.39732C9.31138 4.51339 8.59821 3.80022 7.71429 3.80022C6.83036 3.80022 6.11719 4.51339 6.11719 5.39732C6.11719 6.28125 6.83036 6.99442 7.71429 6.99442C8.59821 6.99442 9.31138 6.28125 9.31138 5.39732ZM11.4609 9.04353C11.7824 9.68638 11.4208 9.99777 10.6071 10.5301C9.91406 10.9721 8.96987 11.1429 8.3471 11.2031L8.86942 11.7254L10.7879 13.6339C11.0792 13.9252 11.0792 14.3973 10.7879 14.6886L10.6975 14.779C10.4062 15.0703 9.93415 15.0703 9.64286 14.779C9.15067 14.2969 8.44754 13.5938 7.72433 12.8605L5.8058 14.779C5.51451 15.0703 5.04241 15.0703 4.75112 14.779L4.66071 14.6886C4.36942 14.3973 4.36942 13.9252 4.66071 13.6339C5.1529 13.1518 5.85603 12.4487 6.57924 11.7254L7.09152 11.2031C6.47879 11.1429 5.51451 10.9721 4.82143 10.5301C4.00781 9.99777 3.64621 9.68638 3.96763 9.04353C4.14844 8.68192 4.66071 8.37054 5.33371 8.9029C5.33371 8.9029 6.24777 9.62612 7.71429 9.62612C9.1808 9.62612 10.0949 8.9029 10.0949 8.9029C10.7679 8.37054 11.2801 8.68192 11.4609 9.04353ZM10.9688 5.39732C10.9688 7.19531 9.51228 8.65179 7.71429 8.65179C5.91629 8.65179 4.45982 7.19531 4.45982 5.39732C4.45982 3.59933 5.91629 2.14286 7.71429 2.14286C9.51228 2.14286 10.9688 3.59933 10.9688 5.39732ZM15.4286 3.75C15.4286 2.1529 14.1328 0.857142 12.5357 0.857142H2.89286C1.29576 0.857142 0 2.1529 0 3.75V13.3929C0 14.99 1.29576 16.2857 2.89286 16.2857H12.5357C14.1328 16.2857 15.4286 14.99 15.4286 13.3929V3.75Z" fill="#222222" fill-opacity="0.2"/>
</svg>
