<svg width="206" height="206" viewBox="0 0 206 206" fill="none" xmlns="http://www.w3.org/2000/svg">
<path fill-rule="evenodd" clip-rule="evenodd" d="M0 168.221V35.2209C0 12.4208 22.6667 2.3875 34 0.220861C69.6667 0.054194 147 -0.179139 171 0.220861C195 0.620861 204 23.7209 205.5 35.2209C205.667 68.8875 205.9 142.621 205.5 168.221C205.1 193.821 182.333 203.554 171 205.221C141.5 205.388 74.4 205.621 42 205.221C9.6 204.821 0.5 180.388 0 168.221ZM103 16.7209C88.5 17.2209 59.5 26.4209 59.5 59.2209C59.5 92.0209 85.1667 102.221 98 103.221C113.667 104.721 145.4 98.0209 147 59.2209C146.167 45.0543 136.2 16.7209 103 16.7209ZM61.5 170.221L94 137.721C89.5 137.721 72 133.221 62 127.221C54 122.421 52 119.221 52 118.221C51.5 117.388 50.8 114.621 52 110.221C53.2 105.821 57.5 103.721 59.5 103.221C61.5 102.888 66.1 102.821 68.5 105.221C71.5 108.221 86.5 116.721 104 116.721C118 116.721 131.833 109.054 137 105.221C138.833 103.721 143.8 101.521 149 104.721C154.2 107.921 154.833 112.388 154.5 114.221C152.9 128.621 125.167 135.888 111.5 137.721L144.5 170.721C146.5 172.888 149 178.821 143 185.221C137 191.621 130.5 187.554 128 184.721L103 159.721L78 184.721C76.1667 187.388 70.6 191.221 63 185.221C55.4 179.221 58.8333 172.721 61.5 170.221Z" fill="#DDDDDD"/>
<circle cx="102.5" cy="60.5" r="21.5" fill="#DDDDDD"/>
</svg>
