<svg width="14" height="14" viewBox="0 0 14 14" fill="none" xmlns="http://www.w3.org/2000/svg">
<path d="M5.55 4.53525L4.05 5.73604L4.65 6.78673C5.37 8.1076 7.31667 9.43847 8.2 9.9388C8.48333 9.58857 9.11 8.81806 9.35 8.53788C9.59 8.2577 9.88333 8.28772 10 8.33775C10.6333 8.62127 12.01 9.22833 12.45 9.38844C12.89 9.54854 13 9.88877 13 10.0389L12.45 12.4404C12.45 12.6072 12.33 12.9508 11.85 12.9908C11.25 13.0408 9.9 12.8907 8.45 12.4404C7 11.9901 5.55 11.2897 3.35 8.88811C1.15 6.48653 1 2.68403 1 2.23374C1 1.8735 1.26667 1.65002 1.4 1.58331C2.03333 1.44989 3.4 1.15303 3.8 1.03295C4.2 0.912874 4.43333 1.1497 4.5 1.28312C4.75 1.86683 5.31 3.16435 5.55 3.6847C5.79 4.20504 5.65 4.46854 5.55 4.53525Z" stroke="white" stroke-opacity="0.8" stroke-width="0.5"/>
</svg>
