<svg width="211" height="171" viewBox="0 0 211 171" fill="none" xmlns="http://www.w3.org/2000/svg">
<path d="M148 141.336C89.6 188.536 25 168.336 0 152.336C33.6 154.336 56.3333 141.17 63.5 134.336C38.3 134.336 26 114.67 23 104.836C27 105.636 38 104.503 43 103.836C12 100.336 5.5 57.8362 8 60.8362C10 63.2362 22.5 65.5028 28.5 66.3362C2.1 49.5362 7.83333 21.3362 14 9.33618C40.8 43.3362 84.8333 53.5028 103.5 54.3362C101 43.5029 102 18.5362 126 5.33621C149.113 -7.37612 168.826 5.47895 176.652 14.3362C185.974 12.7362 199.102 6.66951 204.5 3.83618C202.5 15.3362 186.5 26.8362 185.5 27.3362C190.3 27.7362 204.167 23.1695 210.5 20.8362C208.5 26.0362 194.8 38.0028 188.201 43.3362C194.587 83.6347 166.376 123.636 148 141.336Z" fill="#DDDDDD"/>
</svg>
