<?xml version="1.0" encoding="UTF-8"?>
<svg xmlns="http://www.w3.org/2000/svg" xmlns:xlink="http://www.w3.org/1999/xlink" width="52pt" height="52pt" viewBox="0 0 52 52" version="1.1">
<g id="surface8604767">
<path style=" stroke:none;fill-rule:nonzero;fill:rgb(81.568627%,81.568627%,82.745098%);fill-opacity:1;" d="M 7.8125 8 C 3.507812 8 0 11.507812 0 15.8125 L 0 36.1875 C 0 40.492188 3.507812 44 7.8125 44 L 44.1875 44 C 48.492188 44 52 40.492188 52 36.1875 L 52 15.8125 C 52 11.507812 48.492188 8 44.1875 8 Z M 31.9375 17.9375 C 33.632812 17.9375 35.375 18.625 35.375 18.625 L 34.8125 21.6875 C 34.8125 21.6875 33.4375 20.75 32.25 20.75 C 30.429688 20.75 29.8125 21.390625 29.8125 22.1875 C 29.8125 23.75 34.875 23.984375 34.875 27.5 C 34.875 30.421875 31.25 32.4375 28.625 32.4375 C 26 32.4375 24.625 31.625 24.625 31.625 L 25.25 28.75 C 25.25 28.75 26.632812 29.5625 28.75 29.5625 C 30.867188 29.5625 31.1875 28.632812 31.1875 28.25 C 31.1875 26.007812 26.125 26.609375 26.125 22.25 C 26.125 19.835938 28.085938 17.9375 31.9375 17.9375 Z M 15.5 18.1875 L 19.4375 18.1875 L 13.875 32 L 9.8125 32 L 6.875 20.8125 C 6.875 20.8125 9.96875 22.40625 11.875 26.6875 C 11.953125 27.210938 12.1875 28.0625 12.1875 28.0625 Z M 20.875 18.1875 L 24.625 18.1875 L 22.375 32 L 18.6875 32 Z M 40.8125 18.1875 L 44.625 18.1875 L 47.5 32 L 44.125 32 L 43.75 30.0625 L 39.1875 30.0625 L 38.4375 32 L 34.75 32 Z M 2.8125 18.25 L 8.5 18.25 C 9.953125 18.25 10.5 19.625 10.5 19.625 L 11.75 25.875 C 10.070312 20.453125 2.8125 18.25 2.8125 18.25 Z M 42.1875 22.1875 L 40.1875 27.4375 L 43.25 27.4375 Z M 42.1875 22.1875 "/>
</g>
</svg>
