<svg width="258" height="147" viewBox="0 0 258 147" fill="none" xmlns="http://www.w3.org/2000/svg">
<path d="M233.291 54.4853C218.091 72.0853 214.625 80.8187 214.791 82.9853C215.591 90.1853 224.124 97.9853 228.291 100.985C234.958 106.985 249.691 121.685 255.291 132.485C260.891 143.285 251.624 146.319 246.291 146.485H213.791C202.191 148.085 192.958 141.819 189.791 138.485C186.124 134.485 176.991 124.585 169.791 116.985C162.591 109.385 156.791 113.819 154.791 116.985C152.624 120.152 149.791 125.985 149.791 135.985C149.791 143.485 145.791 145.985 141.791 146.485C143.124 146.319 140.691 146.085 120.291 146.485C99.891 146.885 76.4577 130.319 67.291 121.985C66.291 121.485 60.791 116.085 46.791 98.4854C29.291 76.4854 4.29127 24.9854 0.791272 15.9854C-2.00873 8.78535 3.29127 6.98535 6.29127 6.98535H39.7913C48.1913 6.18535 51.9578 8.98535 52.7911 10.4854C52.2911 9.31868 53.3911 11.6853 61.7911 30.4854C70.1911 49.2854 81.9578 64.9853 86.7911 70.4853C89.9578 73.152 96.7911 75.6853 98.7911 64.4853C101.291 50.4852 100.291 55.9854 100.791 32.9854C101.191 14.5854 90.2911 10.3187 84.7911 10.4854C85.6245 8.81866 88.7911 4.88528 94.7911 2.48528C102.291 -0.514719 121.791 -0.514719 137.291 0.985281C149.691 2.18528 151.458 13.4853 150.791 18.9853C148.791 49.7853 149.958 62.152 150.791 64.4853C151.791 68.4853 155.191 75.2853 160.791 70.4853C166.391 65.6853 172.125 57.8186 174.291 54.4853C179.625 46.152 190.991 27.0853 193.791 17.4853C196.591 7.88528 202.291 6.48531 204.791 6.98533H240.791C257.991 4.98533 258.625 11.8187 256.791 15.4853C255.291 21.152 248.491 36.8853 233.291 54.4853Z" fill="#DDDDDD"/>
</svg>
